<svg xmlns="http://www.w3.org/2000/svg" width="40" height="40" viewBox="0 0 40 40">
  <defs>
    <linearGradient id="botgrad" x1="0%" y1="0%" x2="100%" y2="100%">
      <stop offset="0%" style="stop-color:#5773ff;stop-opacity:1" />
      <stop offset="100%" style="stop-color:#32d4f5;stop-opacity:1" />
    </linearGradient>
  </defs>
  <circle cx="20" cy="20" r="20" fill="url(#botgrad)"/>
  <path d="M12,15 L28,15 C29.105,15 30,15.895 30,17 L30,27 C30,28.105 29.105,29 28,29 L12,29 C10.895,29 10,28.105 10,27 L10,17 C10,15.895 10.895,15 12,15 Z" fill="white"/>
  <circle cx="15" cy="22" r="2" fill="url(#botgrad)"/>
  <circle cx="20" cy="22" r="2" fill="url(#botgrad)"/>
  <circle cx="25" cy="22" r="2" fill="url(#botgrad)"/>
  <rect x="18" y="10" width="4" height="5" rx="1" fill="white"/>
  <rect x="14" y="29" width="4" height="3" rx="1" fill="white"/>
  <rect x="22" y="29" width="4" height="3" rx="1" fill="white"/>
</svg>